<svg version="1" xmlns="http://www.w3.org/2000/svg" width="1106.667" height="1106.667" viewBox="0 0 830.000000 830.000000"><path d="M289.5 14.6c-58 7.8-111.7 42.9-143.2 93.5-44.9 72.1-38.9 164.6 15 231.4 11 13.7 25.7 27 45.2 41l2.8 2.1-9.4 3.8c-47.9 19.7-91.5 54.1-124.5 98.1-17.2 23-33 52.9-42.7 81.1-9.6 27.7-14.4 53.3-16.2 86.6l-.6 10.8H67v-7.8c0-17.5 4.7-45.1 11.1-66 21.4-69.4 74-127.9 140-155.6 22.3-9.3 47.2-16 69.9-18.7 13.5-1.6 46.3-1.3 59.5.5 37.1 5.1 74.9 19.3 105.1 39.5 6.7 4.5 12.7 8.1 13.3 8.1.8 0 1.1-8 .9-29.7l-.3-29.8-7.9-4.4c-4.4-2.5-14.1-7.3-21.7-10.7l-13.9-6.1 5.8-3.8c27.3-18.1 52.6-47 67.2-77 19.6-40.1 25.4-85.4 16.5-129.1-7.9-39-31.4-80.3-60.7-106.5-32.5-29.2-68-45.8-109.8-51.4-13-1.8-39.1-1.7-52.5.1zM339 65.1c47.2 6.5 90.9 38.9 112.4 83.4 9.7 20.1 13.7 37.5 14.2 61.5.5 28-3.6 46.4-16.2 71.5-15.9 31.9-46.6 59-80.9 71.6-17.4 6.4-32.2 9-51.5 9.1-28.2.1-50.6-5.7-74-19.2-12.7-7.3-18.9-11.9-27.5-19.8-31.2-28.9-47.9-66.2-48.4-108.2-.7-58.9 30.7-109.7 85-137 24.4-12.4 56.3-17.1 86.9-12.9z"/><path d="M516 463v50H416v300h401V513H717V413H516v50zm150 25v25h-99v-50h99v25zm100 100v25H467v-50h299v25zM516 688v25h51v-50h99v50h51v-50h49v100H467V663h49v25z"/></svg>