<?xml version="1.0" standalone="no"?>
<!DOCTYPE svg PUBLIC "-//W3C//DTD SVG 20010904//EN"
 "http://www.w3.org/TR/2001/REC-SVG-20010904/DTD/svg10.dtd">
<svg version="1.0" xmlns="http://www.w3.org/2000/svg"
 width="923.000000pt" height="923.000000pt" viewBox="0 0 923.000000 923.000000"
 preserveAspectRatio="xMidYMid meet">
<metadata>
Created by potrace 1.11, written by Peter Selinger 2001-2013
</metadata>
<g transform="translate(0.000000,923.000000) scale(0.100000,-0.100000)"
fill="#000000" stroke="none">
<path d="M3605 8674 c-580 -78 -1117 -429 -1432 -935 -449 -721 -389 -1646
150 -2314 110 -137 257 -270 452 -410 l28 -21 -94 -38 c-479 -197 -915 -541
-1245 -981 -172 -230 -330 -529 -427 -811 -96 -277 -144 -533 -162 -866 l-6
-108 256 0 255 0 0 78 c0 175 47 451 111 660 214 694 740 1279 1400 1556 223
93 472 160 699 187 135 16 463 13 595 -5 371 -51 749 -193 1051 -395 67 -45
127 -81 133 -81 8 0 11 80 9 297 l-3 298 -79 44 c-44 25 -141 73 -217 107
l-139 61 58 38 c273 181 526 470 672 770 196 401 254 854 165 1291 -79 390
-314 803 -607 1065 -325 292 -680 458 -1098 514 -130 18 -391 17 -525 -1z
m495 -505 c472 -65 909 -389 1124 -834 97 -201 137 -375 142 -615 5 -280 -36
-464 -162 -715 -159 -319 -466 -590 -809 -716 -174 -64 -322 -90 -515 -91
-282 -1 -506 57 -740 192 -127 73 -189 119 -275 198 -312 289 -479 662 -484
1082 -7 589 307 1097 850 1370 244 124 563 171 869 129z"/>
<path d="M5870 4190 l0 -500 -500 0 -500 0 0 -1500 0 -1500 2005 0 2005 0 0
1500 0 1500 -500 0 -500 0 0 500 0 500 -1005 0 -1005 0 0 -500z"/>
</g>
</svg>
